# xmcd
#
# Track frame offsets:
#	150
#	14968
#	20687
#	26320
#	33083
#	39416
#	51580
#	67382
#	84160
#	97777
#	111319
#	125061
#	138902
#	152729
#	166947
#	182766
#	198652
#	208792
#	225696
#	254808
#
# Disc length: 3571 seconds
#
# Revision: 0
# Processed by: cddbd v1.5.2PL0 Copyright (c) Steve Scherf et al.
# Submitted via: EasyCDDAExtractor 16.0.8.1
#
DISCID=200df114
DTITLE=Βασίλης Τσιτάνης - Βασίλης Τσιτάνης 09
DYEAR=2010
DGENRE=greek
TTITLE0=Στέλιος Καζαντζίδης - Πεφτουν Τις Βροχης οι Σταλες
TTITLE1=Πάνος Γαβαλάς and Ρία κούρτη - Η Αχσριστη
TTITLE2=Πάνος Γαβαλάς and Ρία κούρτη - Αρχοντισσα
TTITLE3=Πάνος Γαβαλάς and Ρία κούρτη - Πεφτεις Σε Λαθη
TTITLE4=Πάνος Γαβαλάς and Ρία κούρτη - Πηρα Τη Στρατα Κι Ερχομαι
TTITLE5=Γιάννης Πουλόπουλος - Δωδεκα Η Ωρα Θα 'ρθω Βρε Μαριω
TTITLE6=Μαριώ and Χρήστος Μητρέντζης - Η Λιτανεια Του Μαγκα
TTITLE7=Αλεξάνδρα and Βασίλης Τιτσάνης - Τα Ξενα Χερια
TTITLE8=Σωτηρία Μπέλλου - Μεγαλο Πονο μου 'Βαλες
TTITLE9=Λευτέρης Πανταζής and Χαρούλα Λαμπράκη - Δε Ρωτω Ποια Εισαι
TTITLE10=Θανάσης Χαλκιάς - Αϊ Νικολας
TTITLE11=Ηλίας Μακρής - Για Σενα Τραγουδαω
TTITLE12=Σωτηρία Μπέλλου - Ο Νικολας Ο Ψαρας
TTITLE13=Περικλής Περάκης and Γεωργία Λόγγου - Αντιλαλουνε Τα Βουνα
TTITLE14=Γιώργος Τότης - Μπρος Στο ρημαγμενο Σπιτι
TTITLE15=Περικλής Περάκης and Γεωργία Λόγγου - Χωρισαμε Ενα Δειλινο
TTITLE16=Λευτέρης Πανταζής and Χαρούλα Λαμπράκη - Στην Καλαμπακα Μια Βραδια
TTITLE17=Βασίλης Ηλιάδης - Ακρογιαλιες Και Δειλινα (οργανικο)
TTITLE18=Μιχάλης Δασκαλάκης - Ο Ζητιανος
TTITLE19=Μαρίκα Νίνου - Καβουρακια
EXTD=
EXTT0=
EXTT1=
EXTT2=
EXTT3=
EXTT4=
EXTT5=
EXTT6=
EXTT7=
EXTT8=
EXTT9=
EXTT10=
EXTT11=
EXTT12=
EXTT13=
EXTT14=
EXTT15=
EXTT16=
EXTT17=
EXTT18=
EXTT19=
PLAYORDER=
